uphill_walking_calibrated_grf.mot
version=1
nRows=9
nColumns=37
inDegrees=yes
endheader
time	ground_force1_vx	ground_force1_vy	ground_force1_vz	ground_force1_px	ground_force1_py	ground_force1_pz	ground_torque1_x	ground_torque1_y	ground_torque1_z	ground_force2_vx	ground_force2_vy	ground_force2_vz	ground_force2_px	ground_force2_py	ground_force2_pz	ground_torque2_x	ground_torque2_y	ground_torque2_z	femur_assistance_force_vx	femur_assistance_force_vy	femur_assistance_force_vz	femur_assistance_force_px	femur_assistance_force_py	femur_assistance_force_pz	femur_assistance_torque_x	femur_assistance_torque_y	femur_assistance_torque_z	tibia_assistance_force_vx	tibia_assistance_force_vy	tibia_assistance_force_vz	tibia_assistance_force_px	tibia_assistance_force_py	tibia_assistance_force_pz	tibia_assistance_torque_x	tibia_assistance_torque_y	tibia_assistance_torque_z
     26.99000000	      0.00000000	      0.00000000	      0.00000000	      0.88900000	      0.00000000	     -0.84017500	      0.00000000	      0.00000000	      0.00000000	    116.13190500	    380.38278200	    -34.98192600	      0.70554400	      0.00000000	     -0.48413600	      0.00001100	      3.58418300	      0.00001800	     10.83062027	    174.66452892	      0.00000000	     -0.10000000	     -0.09600000	      0.00000000	      0.00000000	      0.00000000	      0.00000000	     34.38873923	   -171.58792094	      0.00000000	     -0.08000000	     -0.20322351	      0.00000000	      0.00000000	      0.00000000	      0.00000000
     26.99100000	      0.00000000	      0.00000000	      0.00000000	      0.88900000	      0.00000000	     -0.84017500	      0.00000000	      0.00000000	      0.00000000	    114.14826200	    377.02584800	    -34.98192600	      0.70567400	      0.00000000	     -0.48375200	      0.00002100	      3.92154200	     -0.00000100	     10.51147216	    174.68402604	      0.00000000	     -0.10000000	     -0.09600000	      0.00000000	      0.00000000	      0.00000000	      0.00000000	     33.93617267	   -171.67800146	      0.00000000	     -0.08000000	     -0.20295737	      0.00000000	      0.00000000	      0.00000000	      0.00000000
     26.99200000	      0.00000000	      0.00000000	      0.00000000	      0.88900000	      0.00000000	     -0.84017500	      0.00000000	      0.00000000	      0.00000000	    112.54608900	    372.75338700	    -35.97374700	      0.70524800	      0.00000000	     -0.48438400	      0.00001500	      3.41789800	      0.00001000	     10.19272852	    174.70291436	      0.00000000	     -0.10000000	     -0.09600000	      0.00000000	      0.00000000	      0.00000000	      0.00000000	     33.48293799	   -171.76697256	      0.00000000	     -0.08000000	     -0.20269250	      0.00000000	      0.00000000	      0.00000000	      0.00000000
     26.99300000	      0.00000000	      0.00000000	      0.00000000	      0.88900000	      0.00000000	     -0.84017500	      0.00000000	      0.00000000	      0.00000000	    111.63056200	    369.24386600	    -37.95739000	      0.70567000	      0.00000000	     -0.48502100	      0.00000900	      3.13005900	     -0.00000400	      9.87435932	    174.72119799	      0.00000000	     -0.10000000	     -0.09600000	      0.00000000	      0.00000000	      0.00000000	      0.00000000	     33.02906838	   -171.85482432	      0.00000000	     -0.08000000	     -0.20242883	      0.00000000	      0.00000000	      0.00000000	      0.00000000
     26.99400000	      0.00000000	      0.00000000	      0.00000000	      0.88900000	      0.00000000	     -0.84017500	      0.00000000	      0.00000000	      0.00000000	    111.32538600	    366.34469600	    -40.01732600	      0.70659000	      0.00000000	     -0.48536100	      0.00002000	      3.02171300	      0.00002200	      9.55640547	    174.73887694	      0.00000000	     -0.10000000	     -0.09600000	      0.00000000	      0.00000000	      0.00000000	      0.00000000	     32.57452732	   -171.94156033	      0.00000000	     -0.08000000	     -0.20216649	      0.00000000	      0.00000000	      0.00000000	      0.00000000
     26.99500000	      0.00000000	      0.00000000	      0.00000000	      0.88900000	      0.00000000	     -0.84017500	      0.00000000	      0.00000000	      0.00000000	    111.17279800	    363.59811400	    -40.85656000	      0.70588400	      0.00000000	     -0.48415900	      0.00000600	      3.30525600	      0.00002000	      9.23885868	    174.75595409	      0.00000000	     -0.10000000	     -0.09600000	      0.00000000	      0.00000000	      0.00000000	      0.00000000	     32.11932664	   -172.02717476	      0.00000000	     -0.08000000	     -0.20190545	      0.00000000	      0.00000000	      0.00000000	      0.00000000
     26.99600000	      0.00000000	      0.00000000	      0.00000000	      0.88900000	      0.00000000	     -0.84017500	      0.00000000	      0.00000000	      0.00000000	    110.63874100	    360.69894400	    -41.16173600	      0.70377400	      0.00000000	     -0.48331200	      0.00000600	      4.27432600	      0.00003400	      8.92168212	    174.77243372	      0.00000000	     -0.10000000	     -0.09600000	      0.00000000	      0.00000000	      0.00000000	      0.00000000	     31.66350632	   -172.11165669	      0.00000000	     -0.08000000	     -0.20164561	      0.00000000	      0.00000000	      0.00000000	      0.00000000
     26.99700000	      0.00000000	      0.00000000	      0.00000000	      0.88900000	      0.00000000	     -0.84017500	      0.00000000	      0.00000000	      0.00000000	    110.33356500	    357.95236200	    -41.61949900	      0.70235300	      0.00000000	     -0.48258800	      0.00000800	      4.70380200	      0.00001100	      8.60489108	    174.78831726	      0.00000000	     -0.10000000	     -0.09600000	      0.00000000	      0.00000000	      0.00000000	      0.00000000	     31.20705506	   -172.19500491	      0.00000000	     -0.08000000	     -0.20138702	      0.00000000	      0.00000000	      0.00000000	      0.00000000
     26.99800000	      0.00000000	      0.00000000	      0.00000000	      0.88900000	      0.00000000	     -0.84017500	      0.00000000	      0.00000000	      0.00000000	    110.40985900	    354.59542800	    -42.30614500	      0.70349400	      0.00000000	     -0.48371400	      0.00001300	      4.21870200	      0.00002200	      8.28852386	    174.80360515	      0.00000000	     -0.10000000	     -0.09600000	      0.00000000	      0.00000000	      0.00000000	      0.00000000	     30.74993885	   -172.27722212	      0.00000000	     -0.08000000	     -0.20112979	      0.00000000	      0.00000000	      0.00000000	      0.00000000
